<svg xmlns="http://www.w3.org/2000/svg" width="920" height="420" viewBox="0 0 920 420" role="img" aria-label="Vergleich Hell warmes Paper und Warm-Dunkel">
  <title>Hell vs. warm-dark — stilistisches Konzept (Token-nah)</title>
  <desc>Schematische ERP-Shell; Farben an apps/web/src/index.css angelehnt.</desc>
  <!-- LINKS: Hell (warmes Paper) -->
  <rect x="8" y="8" width="440" height="404" rx="14" fill="#f7f5f2" stroke="rgba(55,40,30,0.12)"/>
  <text x="28" y="42" font-family="system-ui, -apple-system, Segoe UI, sans-serif" font-size="18" font-weight="600" fill="#1d1d1f">Hell · warmes Paper</text>
  <rect x="28" y="58" width="120" height="320" rx="10" fill="#ffffff" stroke="rgba(55,40,30,0.09)"/>
  <rect x="168" y="58" width="260" height="200" rx="10" fill="#ffffff" stroke="rgba(55,40,30,0.09)"/>
  <rect x="188" y="88" width="140" height="12" rx="4" fill="#ebe5df"/>
  <rect x="188" y="112" width="200" height="10" rx="3" fill="#f0ece8"/>
  <rect x="188" y="132" width="180" height="10" rx="3" fill="#f0ece8"/>
  <rect x="188" y="210" width="96" height="32" rx="16" fill="#0071e3"/>
  <text x="208" y="231" font-family="system-ui, -apple-system, Segoe UI, sans-serif" font-size="12" font-weight="600" fill="#ffffff">Primär</text>
  <!-- RECHTS: Warm-Dunkel -->
  <rect x="472" y="8" width="440" height="404" rx="14" fill="#1e1c1a" stroke="rgba(255,210,180,0.15)"/>
  <text x="492" y="42" font-family="system-ui, -apple-system, Segoe UI, sans-serif" font-size="18" font-weight="600" fill="#f5f2ef">Warm-Dunkel</text>
  <rect x="492" y="58" width="120" height="320" rx="10" fill="#2c2826" stroke="rgba(255,210,180,0.12)"/>
  <rect x="632" y="58" width="260" height="200" rx="10" fill="#2c2826" stroke="rgba(255,210,180,0.12)"/>
  <rect x="652" y="88" width="140" height="12" rx="4" fill="#35312e"/>
  <rect x="652" y="112" width="200" height="10" rx="3" fill="#3d3834"/>
  <rect x="652" y="132" width="180" height="10" rx="3" fill="#3d3834"/>
  <rect x="652" y="210" width="96" height="32" rx="16" fill="#0a84ff"/>
  <text x="672" y="231" font-family="system-ui, -apple-system, Segoe UI, sans-serif" font-size="12" font-weight="600" fill="#ffffff">Primär</text>
</svg>
